# xmcd CD database file
#
# Track frame offsets:
#	150
#	19674
#	36549
#	57940
#	72143
#	91671
#	111804
#	128264
#	154385
#	168798
#	189169
#	211318
#
# Disc length: 3106 seconds
#
# Revision: 0
# Processed by: cddbd v1.5.2PL0 Copyright (c) Steve Scherf et al.
# Submitted via: CDex 1.70beta2
#
DISCID=920c200c
DTITLE=Mark Knopfler and Emmylou Harris - All The Roadrunning
DYEAR=2006
DGENRE=Country
TTITLE0=Beachcombing
TTITLE1=I Dug Up A Diamond
TTITLE2=This Is Us
TTITLE3=Red Staggerwing
TTITLE4=Rollin' On
TTITLE5=Love And Happiness
TTITLE6=Right Now
TTITLE7=Donkey Town
TTITLE8=Belle Starr
TTITLE9=Beyond My Wildest Dreams
TTITLE10=All The Roadrunning
TTITLE11=If This Is Goodbye
EXTD=YEAR: 2006
EXTT0=
EXTT1=
EXTT2=
EXTT3=
EXTT4=
EXTT5=
EXTT6=
EXTT7=
EXTT8=
EXTT9=
EXTT10=
EXTT11=
PLAYORDER=
